<svg aria-hidden="true" style="position: absolute; width: 0; height: 0; overflow: hidden;" version="1.1" xmlns="http://www.w3.org/2000/svg" xmlns:xlink="http://www.w3.org/1999/xlink">
<defs>
<symbol id="add-to-cart" viewBox="0 0 32 32">
<title>add-to-cart</title>
<path d="M31.12 6.072c-0.593-0.678-1.439-1.051-2.381-1.051h-7.112v-4.083c0-0.518-0.42-0.938-0.938-0.938h-5.021c-0.518 0-0.938 0.42-0.938 0.938v4.083h-8.77l-0.229-1.719c-0.247-1.852-1.536-3.302-2.935-3.302h-1.674c-0.518 0-0.938 0.42-0.938 0.938s0.42 0.938 0.938 0.938h1.674c0.301 0 0.938 0.636 1.076 1.675l2.684 20.127c0.118 0.887 0.574 1.718 1.283 2.339 0.526 0.461 1.148 0.767 1.799 0.895-0.265 0.488-0.416 1.047-0.416 1.641 0 1.901 1.547 3.448 3.448 3.448s3.448-1.547 3.448-3.448c0-0.566-0.138-1.101-0.381-1.573h4.913c-0.243 0.472-0.381 1.006-0.381 1.573 0 1.901 1.547 3.448 3.448 3.448s3.448-1.547 3.448-3.448c0-0.566-0.138-1.101-0.381-1.573h2.456c0.518 0 0.938-0.42 0.938-0.938s-0.42-0.938-0.938-0.938h-18.912c-0.916 0-1.792-0.767-1.913-1.675l-0.196-1.471h18.511c0.895 0 1.779-0.342 2.488-0.963s1.165-1.452 1.284-2.339l1.344-10.085c0.125-0.934-0.134-1.822-0.727-2.499zM14.246 28.552c0 0.867-0.706 1.573-1.573 1.573s-1.573-0.706-1.573-1.573c0-0.867 0.706-1.573 1.573-1.573s1.573 0.706 1.573 1.573zM25.292 28.552c0 0.867-0.706 1.573-1.573 1.573s-1.573-0.706-1.573-1.573c0-0.867 0.706-1.573 1.573-1.573s1.573 0.706 1.573 1.573zM16.607 1.875h3.146v4.072c0 0.004-0 0.007-0 0.011s0 0.007 0 0.011v5.010c0 0.518 0.42 0.938 0.938 0.938h0.331l-2.785 2.763-2.785-2.763h0.219c0.518 0 0.938-0.42 0.938-0.938zM29.989 8.323l-1.344 10.086c-0.121 0.908-0.997 1.675-1.913 1.675h-18.761l-1.758-13.188h8.52v3.146h-1.557c-0.38 0-0.722 0.229-0.867 0.58s-0.063 0.755 0.207 1.023l5.061 5.021c0.183 0.181 0.421 0.272 0.66 0.272s0.478-0.091 0.66-0.272l5.061-5.021c0.27-0.268 0.351-0.671 0.207-1.023s-0.487-0.58-0.867-0.58h-1.669v-3.146h7.112c0.394 0 0.738 0.146 0.97 0.411s0.331 0.626 0.279 1.016z"></path>
</symbol>
<symbol id="clock" viewBox="0 0 32 32">
<title>clock</title>
<path d="M16 0c-8.822 0-16 7.178-16 16s7.178 16 16 16 16-7.178 16-16-7.178-16-16-16zM16 30c-7.72 0-14-6.28-14-14s6.28-14 14-14 14 6.28 14 14-6.28 14-14 14z"></path>
<path d="M17 6h-2v10.414l6.293 6.293 1.414-1.414-5.707-5.707z"></path>
</symbol>
<symbol id="email" viewBox="0 0 32 32">
<title>email</title>
<path d="M30.4 3.733h-28.8c-0.884 0-1.6 0.716-1.6 1.6v21.333c0 0.884 0.716 1.6 1.6 1.6h28.8c0.884 0 1.6-0.716 1.6-1.6v-21.333c0-0.884-0.716-1.6-1.6-1.6zM30.933 26.667c0 0.295-0.239 0.533-0.533 0.533h-28.8c-0.295 0-0.533-0.239-0.533-0.533v-21.333c0-0.295 0.239-0.533 0.533-0.533h28.8c0.295 0 0.533 0.239 0.533 0.533v21.333z"></path>
<path d="M29.38 5.869c-0.141-0.012-0.281 0.032-0.389 0.123l-12.304 10.336c-0.397 0.334-0.976 0.334-1.373 0l-12.304-10.336c-0.146-0.122-0.346-0.158-0.525-0.093s-0.31 0.221-0.343 0.409 0.036 0.379 0.182 0.501l12.304 10.335c0.793 0.668 1.951 0.668 2.745 0l12.304-10.335c0.108-0.091 0.176-0.221 0.188-0.362s-0.032-0.281-0.123-0.389c-0.091-0.108-0.221-0.176-0.362-0.189z"></path>
<path d="M10.258 17.071c-0.189-0.042-0.386 0.021-0.514 0.166l-7.467 8c-0.135 0.138-0.185 0.339-0.13 0.524s0.206 0.326 0.395 0.369c0.189 0.042 0.386-0.021 0.514-0.166l7.467-8c0.135-0.138 0.185-0.339 0.13-0.524s-0.206-0.326-0.395-0.369z"></path>
<path d="M22.257 17.236c-0.129-0.144-0.326-0.208-0.514-0.166s-0.34 0.183-0.395 0.369c-0.055 0.185-0.006 0.386 0.13 0.524l7.467 8c0.203 0.207 0.534 0.215 0.745 0.017s0.227-0.529 0.034-0.745l-7.467-8z"></path>
</symbol>
<symbol id="fast-forward" viewBox="0 0 32 32">
<title>fast-forward</title>
<path d="M31.761 15.541l-15.158-10.667c-0.172-0.121-0.395-0.136-0.582-0.039-0.186 0.096-0.303 0.289-0.303 0.498v9.98l-14.835-10.433c-0.171-0.12-0.395-0.135-0.582-0.039-0.186 0.097-0.303 0.289-0.303 0.499v21.319c0 0.209 0.117 0.402 0.303 0.499 0.082 0.042 0.171 0.062 0.259 0.062 0.113 0 0.226-0.035 0.323-0.102l14.835-10.432v9.98c0 0.209 0.117 0.402 0.303 0.499 0.082 0.042 0.171 0.063 0.259 0.063 0.113 0 0.227-0.035 0.323-0.103l15.158-10.667c0.15-0.104 0.239-0.276 0.239-0.459s-0.089-0.354-0.239-0.459zM1.123 25.579v-19.157l13.621 9.578-13.621 9.579zM16.842 25.585v-19.17l13.621 9.585-13.621 9.585z"></path>
</symbol>
<symbol id="heart" viewBox="0 0 32 32">
<title>heart</title>
<path d="M16 30.22c-0.456 0-0.895-0.165-1.237-0.465-1.293-1.13-2.539-2.193-3.639-3.13l-0.006-0.005c-3.224-2.747-6.008-5.12-7.945-7.457-2.165-2.613-3.174-5.090-3.174-7.796 0-2.629 0.902-5.055 2.539-6.831 1.657-1.797 3.929-2.786 6.401-2.786 1.847 0 3.539 0.584 5.028 1.736 0.751 0.581 1.433 1.293 2.033 2.123 0.6-0.83 1.281-1.541 2.033-2.123 1.489-1.152 3.181-1.736 5.028-1.736 2.471 0 4.744 0.99 6.401 2.786 1.637 1.776 2.538 4.201 2.538 6.831 0 2.706-1.008 5.184-3.174 7.796-1.937 2.337-4.721 4.71-7.944 7.457-1.102 0.938-2.35 2.002-3.645 3.136-0.342 0.299-0.782 0.464-1.237 0.464zM8.939 3.624c-1.942 0-3.725 0.775-5.023 2.182-1.317 1.428-2.042 3.403-2.042 5.56 0 2.276 0.846 4.312 2.743 6.6 1.833 2.212 4.56 4.536 7.717 7.227l0.006 0.005c1.104 0.941 2.355 2.007 3.657 3.146 1.31-1.141 2.563-2.209 3.669-3.151 3.157-2.691 5.884-5.014 7.717-7.226 1.896-2.289 2.742-4.324 2.742-6.6 0-2.157-0.725-4.132-2.042-5.56-1.297-1.407-3.081-2.182-5.023-2.182-1.422 0-2.728 0.452-3.881 1.344-1.028 0.795-1.743 1.8-2.163 2.503-0.216 0.362-0.596 0.577-1.016 0.577s-0.801-0.216-1.016-0.577c-0.419-0.703-1.135-1.708-2.163-2.503-1.153-0.892-2.459-1.344-3.881-1.344z"></path>
</symbol>
<symbol id="phone-call" viewBox="0 0 32 32">
<title>phone-call</title>
<path d="M31.978 26.338c-0.102-0.769-0.546-1.432-1.218-1.819l-7.895-4.545c-0.967-0.557-2.194-0.395-2.983 0.395l-1.555 1.555c-0.414 0.414-1.068 0.45-1.522 0.085-1.226-0.986-2.433-2.072-3.587-3.227s-2.24-2.361-3.227-3.587c-0.365-0.454-0.329-1.109 0.085-1.522l1.555-1.555c0.789-0.789 0.951-2.016 0.395-2.983l-4.545-7.895c-0.387-0.672-1.050-1.116-1.819-1.218s-1.525 0.155-2.073 0.703l-2.343 2.343c-1.635 1.635-1.662 4.627-0.074 8.423 1.527 3.65 4.375 7.669 8.022 11.315s7.665 6.495 11.315 8.022c1.869 0.781 3.542 1.172 4.955 1.172 1.457 0 2.638-0.416 3.468-1.246l2.343-2.343c0.548-0.548 0.805-1.304 0.703-2.073zM22.349 20.872l7.895 4.545c0.39 0.225 0.648 0.61 0.707 1.056 0.050 0.375-0.048 0.744-0.268 1.041l-10.492-5.988 0.426-0.426c0.458-0.458 1.171-0.552 1.732-0.229zM5.526 1.050c0.447 0.059 0.832 0.317 1.056 0.707l4.545 7.895c0.323 0.562 0.229 1.274-0.229 1.732l-0.391 0.391-6.021-10.457c0.246-0.182 0.54-0.281 0.847-0.281 0.064 0 0.128 0.004 0.192 0.013zM28.199 30.021c-1.299 1.299-3.956 1.245-7.29-0.149-3.529-1.476-7.429-4.245-10.982-7.798s-6.323-7.453-7.798-10.982c-1.394-3.334-1.449-5.991-0.149-7.29l1.739-1.739 6.030 10.473-0.404 0.404c-0.789 0.789-0.858 2.038-0.16 2.906 1.010 1.255 2.12 2.49 3.301 3.67s2.416 2.291 3.671 3.301c0.867 0.698 2.116 0.629 2.906-0.16l0.369-0.369 10.506 5.996-1.738 1.738z"></path>
</symbol>
<symbol id="right-arrow" viewBox="0 0 32 32">
<title>right-arrow</title>
<path d="M18.689 6.276c-0.399-0.38-1.033-0.365-1.413 0.035s-0.365 1.033 0.035 1.414l7.671 7.276h-19.982c-0.552 0-1 0.448-1 1s0.448 1 1 1h19.95l-7.639 7.276c-0.4 0.381-0.416 1.014-0.035 1.414 0.197 0.206 0.46 0.31 0.724 0.31 0.248 0 0.496-0.091 0.689-0.276l8.725-8.31c0.378-0.378 0.586-0.88 0.586-1.414s-0.208-1.037-0.604-1.431z"></path>
</symbol>
</defs>
</svg>
